<!DOCTYPE svg PUBLIC "-//W3C//DTD SVG 20010904//EN" "http://www.w3.org/TR/2001/REC-SVG-20010904/DTD/svg10.dtd">
<svg version="1.0" xmlns="http://www.w3.org/2000/svg" width="258px" height="74px" viewBox="0 0 2580 740" preserveAspectRatio="xMidYMid meet">
<g id="layer101" fill="#000000" stroke="none">
<path d="M1474 219 c6 -69 34 -209 41 -209 6 0 579 177 598 185 12 5 17 2 17 -10 0 -10 5 -15 13 -12 167 66 273 110 276 113 2 2 -211 4 -474 4 l-478 0 7 -71z"/>
</g>
<g id="layer102" fill="#182f7e" stroke="none">
<path d="M1223 699 c-34 -10 -40 -27 -27 -75 l6 -22 48 21 c59 25 103 18 98 -15 -2 -16 -18 -28 -62 -45 -79 -30 -96 -47 -96 -95 0 -52 15 -77 55 -94 41 -17 86 -18 138 -3 33 9 37 13 37 44 0 19 -4 36 -8 39 -4 2 -29 -2 -55 -11 -37 -12 -54 -13 -72 -5 -36 17 -21 38 38 58 74 24 105 49 113 89 17 93 -89 150 -213 114z"/>
<path d="M1660 688 c-61 -42 -75 -71 -75 -153 0 -79 13 -108 67 -148 31 -23 108 -33 158 -20 31 8 35 13 35 44 0 37 -2 38 -82 24 -38 -7 -45 -5 -73 23 -36 37 -40 90 -11 139 19 31 69 52 91 38 16 -10 12 -45 -5 -45 -10 0 -15 -10 -15 -30 0 -30 1 -30 55 -30 l55 0 0 79 0 79 -44 11 c-70 17 -119 14 -156 -11z"/>
<path d="M10 535 l0 -165 40 0 40 0 0 60 0 60 65 0 65 0 0 -60 0 -60 40 0 40 0 0 165 0 165 -40 0 -39 0 -3 -67 -3 -68 -62 -3 -63 -3 0 71 0 70 -40 0 -40 0 0 -165z"/>
<path d="M340 535 l0 -165 110 0 110 0 0 35 0 35 -70 0 c-68 0 -70 1 -70 25 0 24 3 25 55 25 l55 0 0 38 0 37 -55 -3 -55 -4 0 36 0 36 84 0 84 0 28 -77 c71 -200 61 -183 102 -183 l37 0 54 155 c29 85 56 155 60 155 3 0 5 -70 3 -155 l-3 -155 93 0 c71 0 102 4 128 18 43 23 80 90 80 147 0 57 -37 124 -80 147 -28 15 -58 18 -167 18 l-133 0 -15 -36 c-14 -34 -16 -35 -62 -32 -44 3 -48 5 -57 36 l-9 32 -153 0 -154 0 0 -165z m709 85 c27 -14 44 -64 37 -104 -9 -46 -47 -76 -97 -76 l-39 0 0 95 0 95 41 0 c22 0 48 -4 58 -10z m-319 -91 c0 -24 -23 -21 -28 4 -2 10 3 17 12 17 10 0 16 -9 16 -21z"/>
<path d="M1470 535 l0 -165 35 0 35 0 0 165 0 165 -35 0 -35 0 0 -165z"/>
<path d="M1900 535 l0 -165 40 0 40 0 0 60 0 60 65 0 65 0 0 -60 0 -60 170 0 170 0 0 35 c0 35 0 35 -45 35 l-45 0 0 130 0 130 -40 0 -40 0 0 -130 0 -130 -45 0 -45 0 0 130 0 130 -40 0 -39 0 -3 -67 -3 -68 -62 -3 -63 -3 0 71 0 70 -40 0 -40 0 0 -165z"/>
<path d="M1474 219 c6 -69 34 -209 41 -209 9 0 562 171 583 180 18 8 22 17 22 55 l0 45 -326 0 -327 0 7 -71z"/>
</g>


</svg>